<svg width="60" height="50" viewBox="0 0 60 50" fill="none" xmlns="http://www.w3.org/2000/svg">
<g clip-path="url(#clip0)">
<path d="M13.932 36.864C12.924 36.864 11.448 36.336 9.504 35.28C7.584 34.224 6.468 33.66 6.156 33.588C4.716 35.484 3.372 36.432 2.124 36.432C1.788 36.432 1.284 35.964 0.612 35.028C-0.06 34.092 -0.396 33.216 -0.396 32.4C-0.396 32.04 -0.024 31.596 0.72 31.068C1.464 30.516 2.316 30.132 3.276 29.916C3.924 28.404 4.56 26.112 5.184 23.04C5.832 19.968 6.156 17.268 6.156 14.94C6.156 14.556 6.024 14.124 5.76 13.644C5.52 13.164 5.28 12.78 5.04 12.492L4.644 12.06L4.752 11.34C6.072 10.74 8.808 10.44 12.96 10.44C13.344 11.04 13.536 12.06 13.536 13.5C13.536 14.94 12.9 17.436 11.628 20.988C10.356 24.54 9.084 27.624 7.812 30.24C10.212 30.864 12.504 31.176 14.688 31.176C15.192 31.176 15.6 31.056 15.912 30.816C16.248 30.576 16.608 30.072 16.992 29.304L18.972 29.988C18.588 32.268 18 33.984 17.208 35.136C16.44 36.288 15.348 36.864 13.932 36.864ZM26.2229 7.344V41.148C25.1669 41.292 24.0269 41.364 22.8029 41.364V7.524C24.3149 7.404 25.4549 7.344 26.2229 7.344ZM35.8557 7.344V41.148C34.7997 41.292 33.6597 41.364 32.4357 41.364V7.524C33.9477 7.404 35.0877 7.344 35.8557 7.344ZM41.5645 35.532C41.3965 36.06 40.8325 36.324 39.8725 36.324C38.9365 36.324 38.0005 36 37.0645 35.352C37.8085 33.336 39.2845 29.988 41.4925 25.308C43.7245 20.604 45.2125 17.1 45.9565 14.796C46.0285 14.508 46.0645 14.268 46.0645 14.076C46.0645 13.86 45.9805 13.572 45.8125 13.212C45.6445 12.852 45.4645 12.564 45.2725 12.348L45.0205 12.024L45.1645 11.304C47.3005 10.728 49.8325 10.44 52.7605 10.44L55.5325 10.584C55.7725 10.8 56.0125 11.364 56.2525 12.276C56.4925 13.188 56.6485 14.556 56.7205 16.38C56.7925 18.204 56.8405 21.624 56.8645 26.64C56.8885 30.504 57.3685 32.436 58.3045 32.436C58.5445 32.436 59.0605 32.316 59.8525 32.076L60.2125 31.968L60.9685 34.02C59.9845 34.764 58.8325 35.352 57.5125 35.784C56.1925 36.216 55.0045 36.432 53.9485 36.432C52.4125 36.432 51.3565 35.964 50.7805 35.028C50.2285 34.068 49.9525 32.844 49.9525 31.356C49.9525 29.844 49.9645 28.8 49.9885 28.224C49.5325 28.128 48.6445 28.08 47.3245 28.08C46.0045 28.08 44.8645 28.212 43.9045 28.476C43.0165 30.852 42.2365 33.204 41.5645 35.532ZM50.1325 25.2C50.2525 23.112 50.3125 21.012 50.3125 18.9C50.3125 16.788 50.1925 15.252 49.9525 14.292C49.7125 14.292 49.5445 14.316 49.4485 14.364C48.9205 15.972 47.5045 19.584 45.2005 25.2H50.1325Z" fill="#336666"/>
</g>
<defs>
<clipPath id="clip0">
<rect width="60" height="50" fill="white"/>
</clipPath>
</defs>
</svg>
